<svg width="254" height="92" viewBox="0 0 254 92" fill="none" xmlns="http://www.w3.org/2000/svg">
<path d="M87.106 26.1223H91.9159L105.315 59.1774H98.7873L95.5234 50.562H83.6703L80.4064 59.1774H73.8785L87.106 26.1223ZM93.2903 44.7597L89.6828 35.0893L86.0753 44.7597H93.2903Z" fill="white"/>
<path d="M108.75 26.1223H117.683C132.456 26.1223 135.033 36.3201 135.033 42.8256C135.033 46.3421 134.174 59.1774 117.855 59.1774H108.75V26.1223ZM117.683 53.3751C120.947 53.3751 129.021 53.0234 129.021 43.0014C129.021 32.6278 120.603 32.2762 117.339 32.2762H114.763V53.3751H117.683Z" fill="white"/>
<path d="M139.328 26.1223H148.604C159.426 26.1223 160.801 33.5069 160.801 36.6718C160.801 41.9465 157.365 46.518 152.04 47.0455L161.144 59.1774H153.758L145.34 47.0455H145.168V59.1774H139.156V26.1223H139.328ZM145.34 41.9465H148.948C150.322 41.9465 154.96 41.7708 154.96 37.0236C154.96 32.2763 150.322 32.1004 148.948 32.1004H145.34V41.9465Z" fill="white"/>
<path d="M197.049 43.0016C197.049 52.4961 189.662 60.2325 180.042 60.2325C170.422 60.2325 163.035 52.6719 163.035 43.0016C163.035 33.507 170.422 25.7709 180.042 25.7709C189.662 25.7709 197.049 33.3312 197.049 43.0016ZM191.036 42.8258C191.036 36.6719 186.398 31.573 180.042 31.573C173.686 31.573 169.048 36.6719 169.048 42.8258C169.048 49.1555 173.858 54.2544 180.042 54.2544C186.398 54.0786 191.036 48.9797 191.036 42.8258Z" fill="white"/>
<path d="M56.356 0.100586H48.2821V70.782H56.356V0.100586Z" fill="#1976D2"/>
<path d="M44.3313 32.6279H36.2574V91.8808H44.3313V32.6279Z" fill="#1E88E5"/>
<path d="M32.4782 28.2328H24.4043V70.7822H32.4782V28.2328Z" fill="#2196F3"/>
<path d="M20.4536 16.2765H12.3797V48.8041H20.4536V16.2765Z" fill="#46ACFF"/>
<path d="M8.60103 37.7273H0.527161V59.8813H8.60103V37.7273Z" fill="#45ACFF"/>
<path d="M205.304 26.1899H221.796V32.168H211.317V39.7285H221.28V45.7064H211.317V59.245H205.304V26.1899Z" fill="#F44336"/>
<path d="M234.679 42.717L223.513 26.1895H230.557L238.287 37.6181L246.017 26.1895H253.06L241.894 42.717L253.06 59.2445H245.845L238.115 47.8159L230.385 59.2445H223.513L234.679 42.717Z" fill="#F44336"/>
</svg>
