<svg
  width="5"
  height="10"
  viewBox="0 0 5 10"
  fill="#ffffff"
  xmlns="http://www.w3.org/2000/svg"
>
<path
    d="M4.84882 8.58442L4.72307 9.09847C4.34581 9.24737 4.04446 9.3607 3.82006 9.43862C3.59542 9.51678 3.3344 9.55566 3.037 9.55566C2.58029 9.55566 2.22505 9.44379 1.9717 9.22156C1.71834 8.99845 1.59162 8.71573 1.59162 8.37276C1.59162 8.23999 1.60081 8.10343 1.61993 7.96429C1.63921 7.82498 1.66986 7.6681 1.7118 7.49274L2.18327 5.82401C2.22522 5.66422 2.26087 5.51281 2.28942 5.36964C2.31838 5.22735 2.33234 5.09644 2.33234 4.97859C2.33234 4.76548 2.28821 4.61642 2.20037 4.53261C2.11253 4.44905 1.94492 4.40662 1.69607 4.40662C1.57419 4.40662 1.44893 4.42614 1.32124 4.46389C1.19299 4.5018 1.08337 4.53842 0.991333 4.57246L1.11741 4.058C1.42626 3.93225 1.72148 3.82456 2.00388 3.73519C2.28628 3.64557 2.55311 3.60073 2.8055 3.60073C3.25906 3.60073 3.60905 3.71035 3.85483 3.92958C4.1006 4.14898 4.22345 4.4334 4.22345 4.78387C4.22345 4.85639 4.21538 4.98416 4.19804 5.16678C4.1811 5.3498 4.14956 5.51749 4.10359 5.67002L3.63414 7.33206C3.59566 7.46556 3.56106 7.61817 3.53097 7.7899C3.49991 7.9605 3.48507 8.09085 3.48507 8.17828C3.48507 8.39897 3.53428 8.54965 3.63293 8.62975C3.7323 8.70984 3.90347 8.74969 4.14658 8.74969C4.26072 8.74969 4.39058 8.72945 4.53489 8.68968C4.67879 8.64991 4.78373 8.61499 4.84882 8.58442ZM4.96788 1.60669C4.96788 1.89626 4.85874 2.14357 4.63942 2.34692C4.42067 2.55099 4.15707 2.65311 3.8487 2.65311C3.53936 2.65311 3.27511 2.55099 3.05385 2.34692C2.833 2.14349 2.72233 1.89626 2.72233 1.60669C2.72233 1.31768 2.833 1.06996 3.05385 0.864034C3.27471 0.658427 3.53944 0.555664 3.8487 0.555664C4.15699 0.555664 4.42067 0.658669 4.63942 0.864034C4.8589 1.06996 4.96788 1.31776 4.96788 1.60669Z"
    fill="#ffffff"
  />
</svg>
