<svg width="225" height="253" viewBox="0 0 225 253" fill="none" xmlns="http://www.w3.org/2000/svg">
<path d="M34.3353 162.52C29.8857 171.042 23.9529 177.156 12.2727 176.229C13.5705 171.968 17.0931 168.448 12.2727 164.928C8.93553 162.52 5.78374 163.631 3.00274 165.855C-1.81765 169.56 -0.705252 176.044 5.41294 179.379C13.1997 183.825 25.4361 180.861 34.8915 172.154C46.9425 160.853 53.8022 146.402 59.1788 131.21C66.224 111.202 71.0444 90.452 76.0502 69.8876C77.5334 63.2181 79.3822 58.957 88.2866 59.3275H94.034L95.0793 52.2875H88.472C81.6246 52.2875 81.056 49.6938 83.2808 44.1358C86.0618 36.9105 87.9158 29.3146 91.253 22.4599C95.1464 14.4935 100.152 6.71236 109.978 4.67445C114.243 3.74813 118.136 4.48919 115.911 10.2324C114.428 14.4935 114.984 17.4577 119.063 19.4956C122.771 21.163 125.923 19.6809 128.148 16.9019C131.114 13.3819 130.372 9.49133 127.591 5.97131C124.069 1.71022 119.248 -0.327691 113.686 0.0428381C102.192 0.598632 93.4778 6.34183 85.691 14.3082C78.275 21.9041 74.1962 31.7231 69.005 40.801C65.8532 46.1737 62.516 51.5464 55.2854 51.9169H47.2434V58.957H55.1C62.8868 58.2159 62.516 61.736 61.0328 67.4792C55.8416 87.1172 51.2067 106.941 45.6447 126.393C42.3075 138.621 40.2681 151.219 34.3353 162.52Z" fill="url(#paint0_linear)"/>
<path d="M109.978 81.7439C113.5 86.746 118.692 90.4513 121.102 96.3798C123.273 100.578 125.35 109.827 116.281 113.239C108.845 116.285 102.306 111.791 99.9662 109.163C98.2976 104.902 96.8145 100.826 95.3313 96.565H93.6627C92.1795 104.161 90.6963 111.571 88.6569 121.576H90.146L91.2851 119.538C98.2411 115.063 104.036 118.548 109.978 119.538C119.619 121.205 127.591 117.685 133.338 109.904C138.9 102.308 136.49 94.5271 131.67 87.6723C128.147 82.6702 123.512 78.4091 119.804 73.5922C117.208 70.0722 113.5 66.3669 116.096 61.1795C117.95 57.6595 121.102 55.6216 125.181 55.8068C128.393 55.8915 134.826 57.5857 137.48 63.6851C139.807 69.0333 139.274 70.8609 139.274 73.329L140.825 73.7775L146.655 50.8047H145.575C140.198 56.7332 135.378 54.51 130.372 53.0279C121.473 50.2489 113.686 52.1015 108.124 59.6974C102.562 67.2932 104.787 74.5185 109.978 81.7439Z" fill="url(#paint1_linear)"/>
<path fill-rule="evenodd" clip-rule="evenodd" d="M186.177 110.699C186.422 110.536 186.595 110.337 186.744 110.118L193.037 103.659C192.437 111.193 194.044 124.705 205.273 118.48C213.059 113.415 218.9 105.641 220.847 102.387H219.31L211.391 110.052C209.978 110.999 208.326 111.361 206.015 110.328C206.541 108.448 207.067 106.566 207.593 104.682C211.892 89.3003 213.788 84.5493 218.413 69.1998L222.898 54.7155L211.391 53.37L208.546 61.8914L205.644 57.3426L204.959 56.6411C197.783 50.6792 188.206 53.2668 180.79 57.3426C166.144 65.1237 159.574 78.9339 155.771 90.8758C151.878 103.103 153.732 112.552 160.592 117.183C167.266 121.815 176.351 119.406 186.177 110.699ZM203.613 58.4542C193.416 55.3047 185.24 61.2334 179.863 69.1998C174.487 77.1662 170.037 85.5031 168.925 95.3221C167.627 106.253 170.408 108.661 180.79 106.253C183.189 105.538 187.289 103.659 192.47 94.9513C207.541 72.1399 206.555 60.6828 203.613 58.4542Z" fill="url(#paint2_linear)"/>
<circle cx="110.776" cy="101.807" r="9.41823" fill="url(#paint3_linear)"/>
<path fill-rule="evenodd" clip-rule="evenodd" d="M115.71 126.473C126.922 153.831 160.2 217.247 203.613 252.05H134.546V196.437C134.546 186.034 126.113 177.601 115.71 177.601C105.307 177.601 96.8732 186.034 96.8732 196.437V252.05H27.8062C71.2197 217.247 104.497 153.831 115.71 126.473Z" fill="url(#paint4_linear)"/>
<path d="M224.692 144.861C214.238 155.189 197.525 170.397 148.001 174.933L159.353 192.401C198.087 181.676 217.306 158.724 224.692 144.861Z" fill="url(#paint5_linear)"/>
<path d="M80.2792 180.23C40.5542 189.377 17.2726 212.259 7.17578 226.934C35.2325 210.771 43.3816 203.869 67.7215 200.732L80.2792 180.23Z" fill="url(#paint6_linear)"/>
<defs>
<linearGradient id="paint0_linear" x1="98.1892" y1="40.166" x2="-1.48268" y2="131.128" gradientUnits="userSpaceOnUse">
<stop stop-color="#B8B7B7"/>
<stop offset="0.0001" stop-color="#B8B7B7"/>
<stop offset="1" stop-color="#B8B7B7"/>
</linearGradient>
<linearGradient id="paint1_linear" x1="132.446" y1="66.4726" x2="93.4382" y2="107.171" gradientUnits="userSpaceOnUse">
<stop stop-color="#B8B7B7"/>
<stop offset="0.0001" stop-color="#B8B7B7"/>
<stop offset="1" stop-color="#B8B7B7"/>
</linearGradient>
<linearGradient id="paint2_linear" x1="205.96" y1="67.9506" x2="170.371" y2="114.744" gradientUnits="userSpaceOnUse">
<stop stop-color="#B8B7B7"/>
<stop offset="0.0001" stop-color="#B8B7B7"/>
<stop offset="0.28125" stop-color="#B8B7B7"/>
<stop offset="0.916667" stop-color="#B8B7B7"/>
</linearGradient>
<linearGradient id="paint3_linear" x1="110.775" y1="111.084" x2="120.194" y2="92.3884" gradientUnits="userSpaceOnUse">
<stop offset="0.0001" stop-color="#B8B7B7"/>
<stop offset="0.380208" stop-color="#B8B7B7"/>
<stop offset="1" stop-color="#B8B7B7"/>
</linearGradient>
<linearGradient id="paint4_linear" x1="160.54" y1="154.275" x2="101.416" y2="259.657" gradientUnits="userSpaceOnUse">
<stop stop-color="#B8B7B7"/>
<stop offset="0.0001" stop-color="#B8B7B7"/>
<stop offset="1" stop-color="#B8B7B7"/>
</linearGradient>
<linearGradient id="paint5_linear" x1="171.401" y1="163.031" x2="146.73" y2="246.275" gradientUnits="userSpaceOnUse">
<stop stop-color="#B8B7B7"/>
<stop offset="0.0001" stop-color="#B8B7B7"/>
<stop offset="1" stop-color="#B8B7B7"/>
</linearGradient>
<linearGradient id="paint6_linear" x1="171.401" y1="163.031" x2="146.73" y2="246.275" gradientUnits="userSpaceOnUse">
<stop stop-color="#B8B7B7"/>
<stop offset="0.0001" stop-color="#B8B7B7"/>
<stop offset="1" stop-color="#B8B7B7"/>
</linearGradient>
</defs>
</svg>
